# xmcd
#
# Track frame offsets:
#	150
#	11686
#	20142
#
# Disc length: 396 seconds
#
# Revision: 0
# Processed by: cddbd v1.5.2PL0 Copyright (c) Steve Scherf et al.
# Submitted via: audiograbber 1.81.03
#
DISCID=1d018a03
DTITLE=Cabbellero - Cabbellero
DYEAR=2007
DGENRE=Country
TTITLE0=Honky Tonking
TTITLE1=Whiskey Dinner
TTITLE2=Branded
EXTD=
EXTT0=
EXTT1=
EXTT2=
PLAYORDER=
